<svg width="16" height="15" viewBox="0 0 16 15" fill="none" xmlns="http://www.w3.org/2000/svg">
<g clip-path="url(#clip0_31654_1097)">
<path d="M15.3 5.16675L11.8 5.36675L8.6 0.466748C8.5 0.266748 8.2 0.166748 8 0.166748C7.8 0.166748 7.5 0.266748 7.4 0.466748L4.2 5.36675H0.7C0.3 5.36675 0 5.66675 0 6.06675C0 6.16675 0 6.16675 0 6.26675L1.9 13.0667C2.1 13.7667 2.6 14.1667 3.3 14.1667H12.7C13.4 14.1667 13.9 13.7667 14.1 13.0667L16 6.16675C16 6.06675 16 6.06675 16 5.96675C16 5.56675 15.7 5.16675 15.3 5.16675ZM8 2.06675L10.2 5.26675H5.9L8 2.06675Z" fill="black"/>
</g>
<defs>
<clipPath id="clip0_31654_1097">
<rect width="16" height="14" fill="white" transform="translate(0 0.166748)"/>
</clipPath>
</defs>
</svg>
